<svg xmlns="http://www.w3.org/2000/svg" width="12" height="20"><path fill="#555" fill-rule="evenodd" d="M7.25 18c0 .687-.563 1.249-1.25 1.249-.688 0-1.25-.562-1.25-1.249 0-.688.562-1.25 1.25-1.25.687 0 1.25.562 1.25 1.25zm3.25-2.5c0 .265-.234.5-.5.5H2a.514.514 0 01-.5-.5V4.499C1.5 4.234 1.734 4 2 4h8c.266 0 .5.234.5.499V15.5zm-3-13.25c0 .14-.109.249-.25.249h-2.5a.246.246 0 01-.25-.249c0-.141.109-.251.25-.251h2.5c.141 0 .25.11.25.251zm4.5-.251A2.013 2.013 0 0010 0H2C.906 0 0 .906 0 1.999V18c0 1.094.906 1.999 2 1.999h8c1.094 0 2-.905 2-1.999V1.999z"/></svg>