<svg xmlns="http://www.w3.org/2000/svg" width="15" height="11"><path fill="#555" fill-rule="evenodd" d="M13.929 9.75c0 .133-.126.25-.268.25H1.339c-.142 0-.268-.117-.268-.25v-6c.176.187.369.359.578.515 1.197.86 2.402 1.734 3.566 2.641.628.492 1.406 1.093 2.277 1.093h.016c.871 0 1.649-.601 2.277-1.093a114.342 114.342 0 013.566-2.641c.209-.156.402-.328.578-.515v6zm0-8.212c0 .665-.687 1.532-1.231 1.93a558.794 558.794 0 00-3.357 2.477C8.898 6.281 8.094 7 7.508 7h-.016c-.586 0-1.39-.719-1.834-1.055a558.561 558.561 0 00-3.356-2.477C1.548 2.914 1.071 2.14 1.071 1.25c0-.133.126-.25.268-.25h12.322c.318 0 .268.343.268.538zM15 1.25c0-.688-.603-1.251-1.339-1.251H1.339C.603-.001 0 .562 0 1.25v8.5C0 10.437.603 11 1.339 11h12.322C14.397 11 15 10.437 15 9.75v-8.5z"/></svg>