<svg xmlns="http://www.w3.org/2000/svg" width="15" height="11">
    <path fill="#555" fill-rule="evenodd" d="M13.929 9.75c0 .133-.126.25-.268.25H1.339c-.142 0-.268-.117-.268-.25v-6c.176.187.369.359.578.515 1.197.86 2.402 1.734 3.566 2.641.628.492 1.406 1.093 2.277 1.093h.016c.871 0 1.649-.601 2.277-1.093 1.164-.907 2.369-1.781 3.566-2.641.209-.156.402-.328.578-.515v6zm0-8.212c0 .665-.687 1.532-1.231 1.93-1.122.821-2.243 1.649-3.357 2.477C8.898 6.281 8.094 7 7.508 7h-.016c-.586 0-1.39-.719-1.834-1.055-1.113-.828-2.235-1.656-3.356-2.477-.754-.554-1.231-1.328-1.231-2.218 0-.133.126-.25.268-.25h12.322c.318 0 .268.343.268.538zM15 1.25c0-.688-.603-1.251-1.339-1.251H1.339C.603-.001 0 .562 0 1.25v8.5C0 10.437.603 11 1.339 11h12.322C14.397 11 15 10.437 15 9.75v-8.5z"/>
</svg>
